<?xml version="1.0" encoding="UTF-8"?>
<svg xmlns="http://www.w3.org/2000/svg" version="1.1" viewBox="0 0 878.7 299.5">
  <defs>
    <style>
      .cls-1 {
        fill: #303044;
      }

      .cls-1, .cls-2, .cls-3 {
        stroke-width: 0px;
      }

      .cls-2 {
        fill: #008b3a;
      }

      .cls-3 {
        fill: #272541;
      }

      .cls-4 {
        display: none;
      }
    </style>
  </defs>
  <g id="Layer_1" data-name="Layer 1" class="cls-4">
    <g>
      <g>
        <path class="cls-2" d="M-5092.7,2392.3c-4.2,0-8.5-1.1-12.4-3.3-11.9-6.9-16.1-22-9.3-34l536.9-940.5c6.9-12,22.2-16,34-9.3,11.9,6.9,16.1,22,9.3,34l-536.9,940.5c-4.6,8-13,12.6-21.7,12.6Z"/>
        <path class="cls-2" d="M-5092.7,911.9c-8.9,0-17.5-4.8-22-13.2-6.5-12.1-1.9-27.3,10.3-33.7l961.2-512.9,508.8-957.1c6.5-12.2,21.8-16.7,33.7-10.3,12.2,6.5,16.8,21.6,10.3,33.7l-512.4,963.8c-2.3,4.4-5.9,8-10.3,10.3l-968,516.5c-3.7,2-7.7,2.9-11.7,2.9Z"/>
        <path class="cls-2" d="M-6573,911.9c-4.9,0-9.9-1.5-14.2-4.4-11.3-7.8-14.1-23.4-6.3-34.7L-5994,8.4c1.7-2.4,3.8-4.5,6.2-6.2l880.8-615.9c11.1-7.7,26.8-5.2,34.7,6.2,7.9,11.2,5.1,26.8-6.2,34.7L-5955.6,40.5l-597,860.8c-4.9,7-12.6,10.7-20.5,10.7Z"/>
        <path class="cls-2" d="M-5667.8-1160.4c-4.7,0-9.3-1.3-13.5-4-11.6-7.5-14.8-22.9-7.4-34.5l575-888.3c7.5-11.6,23-14.7,34.5-7.4,11.6,7.5,14.8,22.9,7.4,34.5l-575,888.3c-4.8,7.4-12.8,11.4-20.9,11.4Z"/>
        <path class="cls-2" d="M-4555.8,1464.4c-9.7,0-19.3-3.7-26.5-11l-2017.2-2020.2c-8-8-11.9-19.1-10.8-30.4,1.2-11.2,7.3-21.3,16.8-27.5l905.3-592c14.8-9.8,34.5-7.7,47.1,5L-3585.8,860.6c8.2,8.3,12.1,19.9,10.5,31.4-1.6,11.5-8.4,21.7-18.5,27.5l-943.4,539.9c-5.8,3.4-12.2,5-18.6,5ZM-6513.9-587.2l1964.4,1967.3,876.2-501.4-1999.4-2015.9-841.1,550Z"/>
      </g>
      <g>
        <path class="cls-2" d="M-5092.7,924.5h-1480.3c-20.7,0-37.5-16.8-37.5-37.5V-593.3c0-20.7,16.8-37.5,37.5-37.5h1480.3c20.7,0,37.5,16.8,37.5,37.5V887c0,20.7-16.8,37.5-37.5,37.5ZM-6535.5,849.5h1405.4V-555.8h-1405.4V849.5Z"/>
        <path class="cls-2" d="M-5092.7-555.8h-1480.3c-15.1,0-28.8-9.2-34.6-23.1-5.8-14-2.6-30.1,8.1-40.8l1480.3-1480.3c10.7-10.8,26.7-14,40.8-8.1,14,5.8,23.1,19.5,23.1,34.6V-593.3c0,20.7-16.8,37.5-37.5,37.5ZM-6482.5-630.8h1352.3v-1352.3l-1352.3,1352.3Z"/>
        <path class="cls-2" d="M-3612.4,924.5h-1480.3c-20.7,0-37.5-16.8-37.5-37.5V-593.3c0-20.7,16.8-37.5,37.5-37.5h1480.3c20.7,0,37.5,16.8,37.5,37.5V887c0,20.7-16.8,37.5-37.5,37.5ZM-5055.2,849.5h1405.4V-555.8h-1405.4V849.5Z"/>
        <path class="cls-2" d="M-5092.7,2404.8c-4.8,0-9.7-.9-14.4-2.9-14-5.8-23.1-19.5-23.1-34.6V887c0-20.7,16.8-37.5,37.5-37.5h1480.3c15.1,0,28.8,9.2,34.6,23.1,5.8,14,2.6,30.1-8.1,40.8l-1480.3,1480.3c-7.2,7.2-16.7,11-26.5,11ZM-5055.2,924.5v1352.3l1352.3-1352.3h-1352.3Z"/>
      </g>
    </g>
    <g>
      <path class="cls-1" d="M521.6-543.6C144.4-543.6-92.4-245.5-92.4,121S172.3,785.6,529.6,785.6s513.1-202.9,571.6-295.1l-143.6-95.7c-60.7,97.6-173.6,225.9-433.3,225.9S89.8,276.9,88.3,158.2h1023.5c1.7-17.7,2.7-43.4,2.7-77.1,0-393.1-286.7-624.7-592.8-624.7ZM99,9.3c19.5-111.7,111.2-388.1,422.7-388.1S915.9-120,933.7,9.3H99Z"/>
      <polygon class="cls-1" points="4500.3 -336.3 4787.4 -336.3 4787.4 -501.1 4500.3 -501.1 4500.3 -913.1 4319.5 -913.1 4319.5 -501.1 4106.8 -501.1 4106.8 -336.3 4319.5 -336.3 4319.5 743 4952.6 743 4952.6 578.2 4500.3 578.2 4500.3 -336.3"/>
      <path class="cls-1" d="M-531.1,88.6c0,152.4-31.9,273.8-95.7,364.2-63.8,90.4-162.7,168-287.1,168-219.8,0-329.6-123.1-329.6-369.5V-501.1h-180.8V331c0,275.4,204.9,454.6,481.2,454.6s372.3-150.4,412-225.8v183.2h180.8V-501.1h-180.8V88.6Z"/>
      <path class="cls-1" d="M-1893.6-543.6h-439.9c-360.8,0-612.8,278-612.8,661.9s242.1,667.2,619.4,667.2,381.9-155.1,433.3-226v183.4h180.8v-1930h-180.8v643.3ZM-1893.6,121c0,301.1-189.5,499.8-438.6,499.8s-433.3-200.8-433.3-502.4,153.9-497.1,433.3-497.1h438.6V121Z"/>
      <path class="cls-1" d="M1927.3-543.6c-360.8,0-612.8,278-612.8,661.9s242.1,667.2,619.4,667.2,381.9-155.1,433.3-226v490.5h-883.7v164.8h1064.5V-543.6h-620.6ZM2367.1,121c0,301.1-189.5,499.8-438.6,499.8s-433.3-200.8-433.3-502.4,153.9-497.1,433.3-497.1h438.6V121Z"/>
      <path class="cls-1" d="M3380.3-543.6c-377.2,0-614.1,298.1-614.1,664.6s264.8,664.6,622,664.6,513.1-202.9,571.6-295.1l-143.6-95.7c-60.7,97.6-173.6,225.9-433.3,225.9s-434.4-343.8-436-462.5h1023.5c1.7-17.7,2.7-43.4,2.7-77.1,0-393.1-286.7-624.7-592.8-624.7ZM2957.6,9.3c19.5-111.7,111.2-388.1,422.7-388.1S3774.6-120,3792.3,9.3h-834.7Z"/>
      <path class="cls-1" d="M5570.6-543.6c-377.2,0-614.1,298.1-614.1,664.6s264.8,664.6,622,664.6,513.1-202.9,571.6-295.1l-143.6-95.7c-60.7,97.6-173.6,225.9-433.3,225.9s-434.4-343.8-436-462.5h1023.5c1.7-17.7,2.7-43.4,2.7-77.1,0-393.1-286.7-624.7-592.8-624.7ZM5147.9,9.3c19.5-111.7,111.2-388.1,422.7-388.1s394.3,258.8,412,388.1h-834.7Z"/>
      <path class="cls-1" d="M7348.3,447.9c-64.8,66.2-130.7,172.8-358.9,172.8s-436-222.1-436-499.8,163.9-499.7,436-499.7,250.7,62.9,337.6,188.7l132.9-103.7c-77.7-94.1-207.8-249.9-470.5-249.9s-616.7,254.7-616.7,664.6,262.2,664.6,622,664.6,436-166.6,494.5-239.3l-140.9-98.4Z"/>
    </g>
    <g>
      <path class="cls-2" d="M824.7-461.2c-90.4-54.9-191.4-82.4-303.1-82.4s-224.6,28.4-317.7,85.1C110.9-401.8,38.2-323-14-222-66.3-120.9-92.4-6.7-92.4,120.9s26.6,241.9,79.7,342.9c53.2,101,126.7,179.9,220.6,236.6,93.9,56.7,201.1,85.1,321.7,85.1s244.6-26.2,340.3-78.4c95.7-52.3,172.8-124.5,231.3-216.7l-143.6-95.7c-42.5,70.9-98.8,126.3-168.8,166.2-70,39.9-158.2,59.8-264.5,59.8s-234.9-45.2-311-135.6c-76.2-90.4-117.9-199.4-125-327h1023.5c1.7-17.7,2.7-43.4,2.7-77.1,0-117-25.7-222.8-77.1-317.7-51.4-94.8-122.3-169.7-212.7-224.6ZM99,9.3c19.5-111.7,66-204.3,139.6-277.8,73.5-73.5,167.9-110.3,283.1-110.3s212.7,32.3,281.8,97c69.1,64.7,112.5,161.7,130.3,291.1H99Z"/>
      <path class="cls-2" d="M3683.4-461.2c-90.4-54.9-191.4-82.4-303.1-82.4s-224.6,28.4-317.6,85.1c-93.1,56.7-165.7,135.6-218,236.6-52.3,101-78.4,215.3-78.4,342.9s26.6,241.9,79.7,342.9c53.2,101,126.7,179.9,220.7,236.6,93.9,56.7,201.1,85.1,321.7,85.1s244.6-26.2,340.3-78.4c95.7-52.3,172.8-124.5,231.3-216.7l-143.6-95.7c-42.5,70.9-98.8,126.3-168.8,166.2-70,39.9-158.2,59.8-264.5,59.8s-234.8-45.2-311-135.6c-76.2-90.4-117.9-199.4-125-327h1023.5c1.7-17.7,2.7-43.4,2.7-77.1,0-117-25.7-222.8-77.1-317.7-51.4-94.8-122.3-169.7-212.7-224.6ZM2957.6,9.3c19.5-111.7,66-204.3,139.6-277.8,73.5-73.5,167.9-110.3,283.1-110.3s212.7,32.3,281.8,97c69.1,64.7,112.5,161.7,130.3,291.1h-834.7Z"/>
      <polygon class="cls-2" points="4500.3 -336.3 4787.4 -336.3 4787.4 -501.1 4500.3 -501.1 4500.3 -913.1 4319.5 -913.1 4319.5 -501.1 4106.8 -501.1 4106.8 -336.3 4319.5 -336.3 4319.5 743 4952.6 743 4952.6 578.2 4500.3 578.2 4500.3 -336.3"/>
      <path class="cls-2" d="M5873.6-461.2c-90.4-54.9-191.4-82.4-303.1-82.4s-224.6,28.4-317.7,85.1c-93,56.7-165.7,135.6-218,236.6-52.3,101-78.4,215.3-78.4,342.9s26.6,241.9,79.7,342.9c53.2,101,126.7,179.9,220.6,236.6,93.9,56.7,201.1,85.1,321.7,85.1s244.6-26.2,340.3-78.4c95.7-52.3,172.8-124.5,231.3-216.7l-143.6-95.7c-42.5,70.9-98.8,126.3-168.8,166.2-70,39.9-158.2,59.8-264.5,59.8s-234.8-45.2-311-135.6c-76.2-90.4-117.9-199.4-125-327h1023.5c1.7-17.7,2.7-43.4,2.7-77.1,0-117-25.7-222.8-77.1-317.7-51.4-94.8-122.3-169.7-212.7-224.6ZM5147.9,9.3c19.5-111.7,66-204.3,139.6-277.8,73.5-73.5,167.9-110.3,283.1-110.3s212.7,32.3,281.8,97c69.1,64.7,112.5,161.7,130.3,291.1h-834.7Z"/>
      <path class="cls-2" d="M7348.3,447.9c-44.3,56.8-93.9,99.7-148.9,128.9-54.9,29.3-124.9,43.9-210,43.9s-158.2-21.3-224.7-63.8c-66.4-42.5-118.3-101.9-155.5-178.1-37.2-76.2-55.8-162.2-55.8-257.9s18.6-181.6,55.8-257.9c37.2-76.2,89.1-135.6,155.5-178.1,66.5-42.5,141.3-63.8,224.7-63.8,138.2,0,250.7,62.9,337.6,188.7l132.9-103.7c-62.1-79.8-130.7-141.3-206-184.8-75.3-43.4-163.5-65.1-264.5-65.1s-225.1,28.4-319,85.1c-93.9,56.7-167,135.6-219.3,236.6-52.3,101-78.4,215.3-78.4,342.9s26.6,241.9,79.7,342.9c53.2,101,126.7,179.9,220.6,236.6,93.9,56.7,201.1,85.1,321.7,85.1s191.8-21.7,277.8-65.1c85.9-43.4,158.2-101.4,216.7-174.1l-140.9-98.4Z"/>
      <path class="cls-2" d="M1928.5-543.6c-118.7,0-224.6,28.4-317.7,85.1-93,56.7-165.7,135.2-218,235.3-52.3,100.1-78.4,214-78.4,341.6s26.6,244.6,79.7,345.6c53.2,101,126.7,179.9,220.6,236.6,93.9,56.7,200.2,85.1,319,85.1s170.1-19.9,244.6-59.8c74.3-39.8,137.1-95,188.4-165.7v490h-882.2v164.8h1063.3V-543.6h-619.4ZM2367.2,57.2h-.3v77.5c-1.7,90.2-20.1,171.7-55.5,244.2-37.2,76.2-89.1,135.6-155.5,178.1-66.4,42.5-142.2,63.8-227.3,63.8s-157.7-21.3-223.3-63.8c-65.6-42.5-117-101.9-154.2-178.1-37.2-76.2-55.8-163-55.8-260.5s18.6-181.2,55.8-256.5c37.2-75.3,88.6-134.2,154.2-176.8,65.5-42.5,140-63.8,223.3-63.8s1.8-.2,2.7-.2v.2h436V57.2Z"/>
      <path class="cls-2" d="M-1893.6-543.6h-439.9c-118.2.2-223.7,28.6-316.4,85.1-93,56.7-165.7,135.2-218,235.3-52.3,100.1-78.4,214-78.4,341.6s26.6,244.6,79.7,345.6c53.2,101,126.7,179.9,220.6,236.6,93.9,56.7,200.3,85.1,319,85.1s170.1-19.9,244.6-59.8c74.4-39.9,137.3-95.2,188.7-166.2v183.4h180.8v-1930h-180.8v643.3ZM-1893.6,120.9c0,95.7-18.6,181.7-55.8,257.9-37.2,76.2-89.1,135.6-155.5,178.1-66.4,42.5-142.2,63.8-227.3,63.8s-157.7-21.3-223.3-63.8c-65.6-42.5-117-101.9-154.2-178.1-37.2-76.2-55.8-163-55.8-260.5,0-256.1,153.9-497.1,433.3-497.1h438.6V120.9Z"/>
      <path class="cls-2" d="M-531.1,88.5c0,152.4-31.9,273.8-95.7,364.2-63.8,90.4-162.7,168-287.1,168-219.8,0-329.6-123.1-329.6-369.5V-501.1h-180.8V331c0,93.9,21.7,175.5,65.1,244.6,43.4,69.1,101.9,121.4,175.5,156.8,73.5,35.4,153.7,53.2,240.6,53.2,234.8,0,372.3-150.4,412-225.8v183.2h180.8V-501.1h-180.8V88.5Z"/>
    </g>
  </g>
  <g id="Layer_2" data-name="Layer 2">
    <g>
      <path class="cls-3" d="M195,100h-87V13c0-2-2.4-3.1-3.9-1.6L14.9,100.6s-.7.6-.7,1.6v89.3c0,1.2,1,2.3,2.3,2.3h87v87c0,2,2.4,3.1,3.9,1.6l89.3-89.3s.7-.6.7-1.6v-89.3c0-1.2-1-2.3-2.3-2.3ZM97.4,24.4l-24.6,43c-.2,0-.4.1-.7.2l-42.2,24.2L97.4,24.4ZM73,72.5l27.4,27.5H24.9l48-27.5ZM98.3,104.5c-.6.3-50,26.7-50,26.7l-26.5-26.7h76.4ZM18.7,107.7l26.4,26.6-26.4,49.7v-76.3ZM19.3,189.3l28-52.7,52.2,52.7H19.3ZM103.5,186.8l-52.9-53.4,52.9-28.2v81.6ZM103.5,96.6l-27.9-27.9,27.9-48.8v76.7ZM192.1,104.5l-28,52.7-52.2-52.7h80.2ZM108,107l52.9,53.4-52.9,28.2v-81.6ZM108,197.1l27.9,27.9-27.9,48.8v-76.7ZM114,269.3l24.6-43c.2,0,.4-.1.7-.2l42.2-24.2-67.4,67.4ZM138.5,221.3l-27.4-27.5h75.5l-48,27.5ZM113.1,189.3c.6-.3,50-26.7,50-26.7l26.5,26.7h-76.4ZM192.7,186l-26.4-26.6,26.4-49.7v76.3Z"/>
      <path class="cls-3" d="M444.3,105.2c-22.7,0-37,18-37,40.1s16,40.1,37.5,40.1,30.9-12.2,34.5-17.8l-8.7-5.8c-3.7,5.9-10.5,13.6-26.1,13.6s-26.2-20.7-26.3-27.9h61.7c.1-1.1.2-2.6.2-4.7,0-23.7-17.3-37.7-35.8-37.7ZM418.8,138.6c1.2-6.7,6.7-23.4,25.5-23.4s23.8,15.6,24.9,23.4h-50.3Z"/>
      <polygon class="cls-3" points="684.3 117.7 701.6 117.7 701.6 107.8 684.3 107.8 684.3 82.9 673.4 82.9 673.4 107.8 660.6 107.8 660.6 117.7 673.4 117.7 673.4 182.8 711.6 182.8 711.6 172.9 684.3 172.9 684.3 117.7"/>
      <path class="cls-3" d="M380.8,143.4c0,9.2-1.9,16.5-5.8,22-3.8,5.5-9.8,10.1-17.3,10.1-13.3,0-19.9-7.4-19.9-22.3v-45.4h-10.9v50.2c0,16.6,12.4,27.4,29,27.4s22.5-9.1,24.9-13.6v11.1h10.9v-75h-10.9v35.6Z"/>
      <path class="cls-3" d="M298.7,105.2h-26.5c-21.8,0-37,16.8-37,39.9s14.6,40.2,37.4,40.2,23-9.4,26.1-13.6v11.1h10.9v-116.4h-10.9v38.8ZM298.7,145.3c0,18.2-11.4,30.1-26.5,30.1s-26.1-12.1-26.1-30.3,9.3-30,26.1-30h26.5v30.1Z"/>
      <path class="cls-3" d="M492.2,145.2c0,22.4,14.6,40.2,37.4,40.2s23-9.4,26.1-13.6v29.6h-53.3v9.9h64.2v-106.1h-37.4c-21.8,0-37,16.8-37,39.9ZM555.6,115.2v30.1c0,18.2-11.4,30.1-26.5,30.1s-26.1-12.1-26.1-30.3,9.3-30,26.1-30h26.5Z"/>
      <path class="cls-3" d="M616.7,105.2c-22.7,0-37,18-37,40.1s16,40.1,37.5,40.1,30.9-12.2,34.5-17.8l-8.7-5.8c-3.7,5.9-10.5,13.6-26.1,13.6s-26.2-20.7-26.3-27.9h61.7c.1-1.1.2-2.6.2-4.7,0-23.7-17.3-37.7-35.8-37.7ZM591.3,138.6c1.2-6.7,6.7-23.4,25.5-23.4s23.8,15.6,24.9,23.4h-50.3Z"/>
      <path class="cls-3" d="M748.8,105.2c-22.7,0-37,18-37,40.1s16,40.1,37.5,40.1,30.9-12.2,34.5-17.8l-8.7-5.8c-3.7,5.9-10.5,13.6-26.1,13.6s-26.2-20.7-26.3-27.9h61.7c.1-1.1.2-2.6.2-4.7,0-23.7-17.3-37.7-35.8-37.7ZM723.4,138.6c1.2-6.7,6.7-23.4,25.5-23.4s23.8,15.6,24.9,23.4h-50.3Z"/>
      <path class="cls-3" d="M856.1,165c-3.9,4-7.9,10.4-21.6,10.4s-26.3-13.4-26.3-30.1,9.9-30.1,26.3-30.1,15.1,3.8,20.4,11.4l8-6.3c-4.7-5.7-12.5-15.1-28.4-15.1s-37.2,15.4-37.2,40.1,15.8,40.1,37.5,40.1,26.3-10,29.8-14.4l-8.5-5.9Z"/>
    </g>
  </g>
</svg>