<?xml version="1.0" encoding="UTF-8"?>
<svg id="Camada_1" data-name="Camada 1" xmlns="http://www.w3.org/2000/svg" xmlns:xlink="http://www.w3.org/1999/xlink" version="1.1" viewBox="0 0 1800 1200">
  <defs>
    <style>
      .cls-1 {
        clip-path: url(#clippath);
      }

      .cls-2, .cls-3 {
        fill: none;
      }

      .cls-2, .cls-4 {
        stroke-width: 0px;
      }

      .cls-3 {
        stroke: #9f9ccd;
        stroke-linecap: round;
        stroke-linejoin: round;
      }

      .cls-4 {
        fill: none;
      }
    </style>
    <clipPath id="clippath">
      <rect class="cls-2" x="0" y="0" width="1800" height="1200"/>
    </clipPath>
  </defs>
  
  <g class="cls-1">
    <g>
      <polygon class="cls-3" points="-62.3 -71.3 40.5 -71.3 -62.3 31.5 -62.3 -71.3"/>
      <g>
        <g>
          <polyline class="cls-3" points="-62.3 235.6 4.9 199.8 40.5 132.8"/>
          <polygon class="cls-3" points="-165.1 132.8 -102.2 91.7 40.5 235.6 -25 273.2 -165.1 132.8"/>
        </g>
        <g>
          <rect class="cls-3" x="-62.3" y="132.8" width="102.8" height="102.8"/>
          <polygon class="cls-3" points="-62.3 235.6 40.5 235.6 -62.3 338.5 -62.3 235.6"/>
        </g>
      </g>
      <g>
        <g>
          <line class="cls-3" x1="180.7" y1="170.3" x2="143.4" y2="235.6"/>
          <polyline class="cls-3" points="143.4 132.8 210.6 96.9 246.2 30"/>
          <polyline class="cls-3" points="143.4 30 82.2 72.8 40.5 132.8"/>
          <polygon class="cls-3" points="40.5 30 103.4 -11.1 246.2 132.8 180.7 170.3 40.5 30"/>
        </g>
        <g>
          <rect class="cls-3" x="40.5" y="30" width="102.8" height="102.8"/>
          <polygon class="cls-3" points="143.4 30 40.5 30 143.4 -72.8 143.4 30"/>
          <rect class="cls-3" x="143.4" y="30" width="102.8" height="102.8"/>
          <polygon class="cls-3" points="143.4 132.8 246.2 132.8 143.4 235.6 143.4 132.8"/>
        </g>
      </g>
      <g>
        <g>
          <line class="cls-3" x1="386.3" y1="67.5" x2="349" y2="132.8"/>
          <polyline class="cls-3" points="349 30 416.3 -5.9 451.9 -72.8"/>
          <polyline class="cls-3" points="349 -72.8 287.8 -30.1 246.2 30"/>
          <polygon class="cls-3" points="246.2 -72.8 309.1 -114 451.9 30 386.3 67.5 246.2 -72.8"/>
        </g>
        <g>
          <rect class="cls-3" x="246.2" y="-72.8" width="102.8" height="102.8"/>
          <rect class="cls-3" x="349" y="-72.8" width="102.8" height="102.8"/>
          <polygon class="cls-3" points="349 30 451.9 30 349 132.8 349 30"/>
        </g>
      </g>
      <g>
        <line class="cls-3" x1="592" y1="-35.3" x2="554.7" y2="30"/>
        <polygon class="cls-3" points="554.7 -72.8 657.5 -72.8 554.7 30 554.7 -72.8"/>
      </g>
      <g>
        <g>
          <polyline class="cls-3" points="-62.3 542.6 4.9 506.8 40.5 439.8"/>
          <polygon class="cls-3" points="-165.1 439.8 -102.2 398.7 40.5 542.6 -25 580.1 -165.1 439.8"/>
        </g>
        <g>
          <rect class="cls-3" x="-62.3" y="439.8" width="102.8" height="102.8"/>
          <polygon class="cls-3" points="-62.3 542.6 40.5 542.6 -62.3 645.5 -62.3 542.6"/>
        </g>
      </g>
      <g>
        <g>
          <line class="cls-3" x1="180.7" y1="477.3" x2="143.4" y2="542.6"/>
          <polyline class="cls-3" points="143.4 439.8 210.6 403.9 246.2 337"/>
          <polyline class="cls-3" points="143.4 337 82.2 379.8 40.5 439.8"/>
          <line class="cls-3" x1="103.4" y1="295.9" x2="143.4" y2="234.1"/>
          <polygon class="cls-3" points="40.5 337 103.4 295.9 246.2 439.8 180.7 477.3 40.5 337"/>
        </g>
        <g>
          <rect class="cls-3" x="40.5" y="337" width="102.8" height="102.8"/>
          <polygon class="cls-3" points="143.4 337 40.5 337 143.4 234.1 143.4 337"/>
          <rect class="cls-3" x="143.4" y="337" width="102.8" height="102.8"/>
          <polygon class="cls-3" points="143.4 439.8 246.2 439.8 143.4 542.6 143.4 439.8"/>
        </g>
      </g>
      <g>
        <g>
          <line class="cls-3" x1="386.3" y1="374.5" x2="349" y2="439.8"/>
          <polyline class="cls-3" points="349 337 416.3 301.1 451.9 234.1"/>
          <polyline class="cls-3" points="349 234.1 287.8 276.9 246.2 337"/>
          <line class="cls-3" x1="309.1" y1="193" x2="349" y2="131.3"/>
          <polygon class="cls-3" points="246.2 234.1 309.1 193 451.9 337 386.3 374.5 246.2 234.1"/>
        </g>
        <g>
          <rect class="cls-3" x="246.2" y="234.1" width="102.8" height="102.8"/>
          <polygon class="cls-3" points="349 234.1 246.2 234.1 349 131.3 349 234.1"/>
          <rect class="cls-3" x="349" y="234.1" width="102.8" height="102.8"/>
          <polygon class="cls-3" points="349 337 451.9 337 349 439.8 349 337"/>
        </g>
      </g>
      <g>
        <g>
          <line class="cls-3" x1="592" y1="271.7" x2="554.7" y2="337"/>
          <polyline class="cls-3" points="554.7 234.1 621.9 198.3 657.5 131.3"/>
          <polyline class="cls-3" points="554.7 131.3 493.5 174.1 451.9 234.1"/>
          <line class="cls-3" x1="514.7" y1="90.2" x2="554.7" y2="28.5"/>
          <polygon class="cls-3" points="451.9 131.3 514.7 90.2 657.5 234.1 592 271.7 451.9 131.3"/>
        </g>
        <g>
          <rect class="cls-3" x="451.9" y="131.3" width="102.8" height="102.8"/>
          <polygon class="cls-3" points="554.7 131.3 451.9 131.3 554.7 28.5 554.7 131.3"/>
          <rect class="cls-3" x="554.7" y="131.3" width="102.8" height="102.8"/>
          <polygon class="cls-3" points="554.7 234.1 657.5 234.1 554.7 337 554.7 234.1"/>
        </g>
      </g>
      <g>
        <g>
          <line class="cls-3" x1="797.7" y1="168.8" x2="760.4" y2="234.1"/>
          <polyline class="cls-3" points="760.4 131.3 827.6 95.4 863.2 28.5"/>
          <polyline class="cls-3" points="760.4 28.5 699.2 71.3 657.5 131.3"/>
          <polygon class="cls-3" points="657.5 28.5 720.4 -12.6 863.2 131.3 797.7 168.8 657.5 28.5"/>
        </g>
        <g>
          <rect class="cls-3" x="657.5" y="28.5" width="102.8" height="102.8"/>
          <polygon class="cls-3" points="760.4 28.5 657.5 28.5 760.4 -74.3 760.4 28.5"/>
          <rect class="cls-3" x="760.4" y="28.5" width="102.8" height="102.8"/>
          <polygon class="cls-3" points="760.4 131.3 863.2 131.3 760.4 234.1 760.4 131.3"/>
        </g>
      </g>
      <g>
        <g>
          <line class="cls-3" x1="1003.3" y1="66" x2="966" y2="131.3"/>
          <polyline class="cls-3" points="966 28.5 1033.3 -7.4 1068.8 -74.3"/>
          <polyline class="cls-3" points="966 -74.3 904.8 -31.6 863.2 28.5"/>
          <polygon class="cls-3" points="863.2 -74.3 926.1 -115.5 1068.8 28.5 1003.3 66 863.2 -74.3"/>
        </g>
        <g>
          <rect class="cls-3" x="863.2" y="-74.3" width="102.8" height="102.8"/>
          <rect class="cls-3" x="966" y="-74.3" width="102.8" height="102.8"/>
          <polygon class="cls-3" points="966 28.5 1068.8 28.5 966 131.3 966 28.5"/>
        </g>
      </g>
      <g>
        <line class="cls-3" x1="1209" y1="-36.8" x2="1171.7" y2="28.5"/>
        <polygon class="cls-3" points="1171.7 -74.3 1274.5 -74.3 1171.7 28.5 1171.7 -74.3"/>
      </g>
      <g>
        <g>
          <polyline class="cls-3" points="-62.3 849.6 4.9 813.8 40.5 746.8"/>
          <polygon class="cls-3" points="-165.1 746.8 -102.2 705.7 40.5 849.6 -25 887.1 -165.1 746.8"/>
        </g>
        <g>
          <rect class="cls-3" x="-62.3" y="746.8" width="102.8" height="102.8"/>
          <polygon class="cls-3" points="-62.3 849.6 40.5 849.6 -62.3 952.5 -62.3 849.6"/>
        </g>
      </g>
      <g>
        <g>
          <line class="cls-3" x1="180.7" y1="784.3" x2="143.4" y2="849.6"/>
          <polyline class="cls-3" points="143.4 746.8 210.6 710.9 246.2 644"/>
          <polyline class="cls-3" points="143.4 644 82.2 686.8 40.5 746.8"/>
          <line class="cls-3" x1="103.4" y1="602.9" x2="143.4" y2="541.1"/>
          <polygon class="cls-3" points="40.5 644 103.4 602.9 246.2 746.8 180.7 784.3 40.5 644"/>
        </g>
        <g>
          <rect class="cls-3" x="40.5" y="644" width="102.8" height="102.8"/>
          <polygon class="cls-3" points="143.4 644 40.5 644 143.4 541.1 143.4 644"/>
          <rect class="cls-3" x="143.4" y="644" width="102.8" height="102.8"/>
          <polygon class="cls-3" points="143.4 746.8 246.2 746.8 143.4 849.6 143.4 746.8"/>
        </g>
      </g>
      <g>
        <g>
          <line class="cls-3" x1="386.3" y1="681.5" x2="349" y2="746.8"/>
          <polyline class="cls-3" points="349 644 416.3 608.1 451.9 541.1"/>
          <polyline class="cls-3" points="349 541.1 287.8 583.9 246.2 644"/>
          <line class="cls-3" x1="309.1" y1="500" x2="349" y2="438.3"/>
          <polygon class="cls-3" points="246.2 541.1 309.1 500 451.9 644 386.3 681.5 246.2 541.1"/>
        </g>
        <g>
          <rect class="cls-3" x="246.2" y="541.1" width="102.8" height="102.8"/>
          <polygon class="cls-3" points="349 541.1 246.2 541.1 349 438.3 349 541.1"/>
          <rect class="cls-3" x="349" y="541.1" width="102.8" height="102.8"/>
          <polygon class="cls-3" points="349 644 451.9 644 349 746.8 349 644"/>
        </g>
      </g>
      <g>
        <g>
          <line class="cls-3" x1="592" y1="578.6" x2="554.7" y2="644"/>
          <polyline class="cls-3" points="554.7 541.1 621.9 505.3 657.5 438.3"/>
          <polyline class="cls-3" points="554.7 438.3 493.5 481.1 451.9 541.1"/>
          <line class="cls-3" x1="514.7" y1="397.2" x2="554.7" y2="335.5"/>
          <polygon class="cls-3" points="451.9 438.3 514.7 397.2 657.5 541.1 592 578.6 451.9 438.3"/>
        </g>
        <g>
          <rect class="cls-3" x="451.9" y="438.3" width="102.8" height="102.8"/>
          <polygon class="cls-3" points="554.7 438.3 451.9 438.3 554.7 335.5 554.7 438.3"/>
          <rect class="cls-3" x="554.7" y="438.3" width="102.8" height="102.8"/>
          <polygon class="cls-3" points="554.7 541.1 657.5 541.1 554.7 644 554.7 541.1"/>
        </g>
      </g>
      <g>
        <g>
          <line class="cls-3" x1="797.7" y1="475.8" x2="760.4" y2="541.1"/>
          <polyline class="cls-3" points="760.4 438.3 827.6 402.4 863.2 335.5"/>
          <polyline class="cls-3" points="760.4 335.5 699.2 378.3 657.5 438.3"/>
          <line class="cls-3" x1="720.4" y1="294.4" x2="760.4" y2="232.6"/>
          <polygon class="cls-3" points="657.5 335.5 720.4 294.4 863.2 438.3 797.7 475.8 657.5 335.5"/>
        </g>
        <g>
          <rect class="cls-3" x="657.5" y="335.5" width="102.8" height="102.8"/>
          <polygon class="cls-3" points="760.4 335.5 657.5 335.5 760.4 232.6 760.4 335.5"/>
          <rect class="cls-3" x="760.4" y="335.5" width="102.8" height="102.8"/>
          <polygon class="cls-3" points="760.4 438.3 863.2 438.3 760.4 541.1 760.4 438.3"/>
        </g>
      </g>
      <g>
        <g>
          <line class="cls-3" x1="1003.3" y1="373" x2="966" y2="438.3"/>
          <polyline class="cls-3" points="966 335.5 1033.3 299.6 1068.8 232.6"/>
          <polyline class="cls-3" points="966 232.6 904.8 275.4 863.2 335.5"/>
          <line class="cls-3" x1="926.1" y1="191.5" x2="966" y2="129.8"/>
          <polygon class="cls-3" points="863.2 232.6 926.1 191.5 1068.8 335.5 1003.3 373 863.2 232.6"/>
        </g>
        <g>
          <rect class="cls-3" x="863.2" y="232.6" width="102.8" height="102.8"/>
          <polygon class="cls-3" points="966 232.6 863.2 232.6 966 129.8 966 232.6"/>
          <rect class="cls-3" x="966" y="232.6" width="102.8" height="102.8"/>
          <polygon class="cls-3" points="966 335.5 1068.8 335.5 966 438.3 966 335.5"/>
        </g>
      </g>
      <g>
        <g>
          <line class="cls-3" x1="1209" y1="270.2" x2="1171.7" y2="335.5"/>
          <polyline class="cls-3" points="1171.7 232.6 1238.9 196.8 1274.5 129.8"/>
          <polyline class="cls-3" points="1171.7 129.8 1110.5 172.6 1068.8 232.6"/>
          <line class="cls-3" x1="1131.7" y1="88.7" x2="1171.7" y2="27"/>
          <polygon class="cls-3" points="1068.8 129.8 1131.7 88.7 1274.5 232.6 1209 270.2 1068.8 129.8"/>
        </g>
        <g>
          <rect class="cls-3" x="1068.8" y="129.8" width="102.8" height="102.8"/>
          <polygon class="cls-3" points="1171.7 129.8 1068.8 129.8 1171.7 27 1171.7 129.8"/>
          <rect class="cls-3" x="1171.7" y="129.8" width="102.8" height="102.8"/>
          <polygon class="cls-3" points="1171.7 232.6 1274.5 232.6 1171.7 335.5 1171.7 232.6"/>
        </g>
      </g>
      <g>
        <g>
          <line class="cls-3" x1="1414.6" y1="167.3" x2="1377.3" y2="232.6"/>
          <polyline class="cls-3" points="1377.3 129.8 1444.6 93.9 1480.2 27"/>
          <polyline class="cls-3" points="1377.3 27 1316.2 69.8 1274.5 129.8"/>
          <polygon class="cls-3" points="1274.5 27 1337.4 -14.1 1480.2 129.8 1414.6 167.3 1274.5 27"/>
        </g>
        <g>
          <rect class="cls-3" x="1274.5" y="27" width="102.8" height="102.8"/>
          <polygon class="cls-3" points="1377.3 27 1274.5 27 1377.3 -75.8 1377.3 27"/>
          <rect class="cls-3" x="1377.3" y="27" width="102.8" height="102.8"/>
          <polygon class="cls-3" points="1377.3 129.8 1480.2 129.8 1377.3 232.6 1377.3 129.8"/>
        </g>
      </g>
      <g>
        <g>
          <line class="cls-3" x1="1620.3" y1="64.5" x2="1583" y2="129.8"/>
          <polyline class="cls-3" points="1583 27 1650.2 -8.9 1685.8 -75.8"/>
          <polyline class="cls-3" points="1583 -75.8 1521.8 -33.1 1480.2 27"/>
          <polygon class="cls-3" points="1480.2 -75.8 1543.1 -117 1685.8 27 1620.3 64.5 1480.2 -75.8"/>
        </g>
        <g>
          <rect class="cls-3" x="1480.2" y="-75.8" width="102.8" height="102.8"/>
          <rect class="cls-3" x="1583" y="-75.8" width="102.8" height="102.8"/>
          <polygon class="cls-3" points="1583 27 1685.8 27 1583 129.8 1583 27"/>
        </g>
      </g>
      <g>
        <g>
          <polyline class="cls-3" points="-62.3 1156.6 4.9 1120.7 40.5 1053.8"/>
          <polygon class="cls-3" points="-165.1 1053.8 -102.2 1012.7 40.5 1156.6 -25 1194.1 -165.1 1053.8"/>
        </g>
        <g>
          <rect class="cls-3" x="-62.3" y="1053.8" width="102.8" height="102.8"/>
          <polygon class="cls-3" points="-62.3 1156.6 40.5 1156.6 -62.3 1259.5 -62.3 1156.6"/>
        </g>
      </g>
      <g>
        <g>
          <line class="cls-3" x1="180.7" y1="1091.3" x2="143.4" y2="1156.6"/>
          <polyline class="cls-3" points="143.4 1053.8 210.6 1017.9 246.2 951"/>
          <polyline class="cls-3" points="143.4 951 82.2 993.8 40.5 1053.8"/>
          <line class="cls-3" x1="103.4" y1="909.8" x2="143.4" y2="848.1"/>
          <polygon class="cls-3" points="40.5 951 103.4 909.8 246.2 1053.8 180.7 1091.3 40.5 951"/>
        </g>
        <g>
          <rect class="cls-3" x="40.5" y="951" width="102.8" height="102.8"/>
          <polygon class="cls-3" points="143.4 951 40.5 951 143.4 848.1 143.4 951"/>
          <rect class="cls-3" x="143.4" y="951" width="102.8" height="102.8"/>
          <polygon class="cls-3" points="143.4 1053.8 246.2 1053.8 143.4 1156.6 143.4 1053.8"/>
        </g>
      </g>
      <g>
        <g>
          <line class="cls-3" x1="386.3" y1="988.5" x2="349" y2="1053.8"/>
          <polyline class="cls-3" points="349 951 416.3 915.1 451.9 848.1"/>
          <polyline class="cls-3" points="349 848.1 287.8 890.9 246.2 951"/>
          <line class="cls-3" x1="309.1" y1="807" x2="349" y2="745.3"/>
          <polygon class="cls-3" points="246.2 848.1 309.1 807 451.9 951 386.3 988.5 246.2 848.1"/>
        </g>
        <g>
          <rect class="cls-3" x="246.2" y="848.1" width="102.8" height="102.8"/>
          <polygon class="cls-3" points="349 848.1 246.2 848.1 349 745.3 349 848.1"/>
          <rect class="cls-3" x="349" y="848.1" width="102.8" height="102.8"/>
          <polygon class="cls-3" points="349 951 451.9 951 349 1053.8 349 951"/>
        </g>
      </g>
      <g>
        <g>
          <line class="cls-3" x1="592" y1="885.6" x2="554.7" y2="951"/>
          <polyline class="cls-3" points="554.7 848.1 621.9 812.3 657.5 745.3"/>
          <polyline class="cls-3" points="554.7 745.3 493.5 788.1 451.9 848.1"/>
          <line class="cls-3" x1="514.7" y1="704.2" x2="554.7" y2="642.5"/>
          <polygon class="cls-3" points="451.9 745.3 514.7 704.2 657.5 848.1 592 885.6 451.9 745.3"/>
        </g>
        <g>
          <rect class="cls-3" x="451.9" y="745.3" width="102.8" height="102.8"/>
          <polygon class="cls-3" points="554.7 745.3 451.9 745.3 554.7 642.5 554.7 745.3"/>
          <rect class="cls-3" x="554.7" y="745.3" width="102.8" height="102.8"/>
          <polygon class="cls-3" points="554.7 848.1 657.5 848.1 554.7 951 554.7 848.1"/>
        </g>
      </g>
      <g>
        <g>
          <line class="cls-3" x1="797.7" y1="782.8" x2="760.4" y2="848.1"/>
          <polyline class="cls-3" points="760.4 745.3 827.6 709.4 863.2 642.5"/>
          <polyline class="cls-3" points="760.4 642.5 699.2 685.3 657.5 745.3"/>
          <line class="cls-3" x1="720.4" y1="601.4" x2="760.4" y2="539.6"/>
          <polygon class="cls-3" points="657.5 642.5 720.4 601.4 863.2 745.3 797.7 782.8 657.5 642.5"/>
        </g>
        <g>
          <rect class="cls-3" x="657.5" y="642.5" width="102.8" height="102.8"/>
          <polygon class="cls-3" points="760.4 642.5 657.5 642.5 760.4 539.6 760.4 642.5"/>
          <rect class="cls-3" x="760.4" y="642.5" width="102.8" height="102.8"/>
          <polygon class="cls-3" points="760.4 745.3 863.2 745.3 760.4 848.1 760.4 745.3"/>
        </g>
      </g>
      <g>
        <g>
          <line class="cls-3" x1="1003.3" y1="680" x2="966" y2="745.3"/>
          <polyline class="cls-3" points="966 642.5 1033.3 606.6 1068.8 539.6"/>
          <polyline class="cls-3" points="966 539.6 904.8 582.4 863.2 642.5"/>
          <line class="cls-3" x1="926.1" y1="498.5" x2="966" y2="436.8"/>
          <polygon class="cls-3" points="863.2 539.6 926.1 498.5 1068.8 642.5 1003.3 680 863.2 539.6"/>
        </g>
        <g>
          <rect class="cls-3" x="863.2" y="539.6" width="102.8" height="102.8"/>
          <polygon class="cls-3" points="966 539.6 863.2 539.6 966 436.8 966 539.6"/>
          <rect class="cls-3" x="966" y="539.6" width="102.8" height="102.8"/>
          <polygon class="cls-3" points="966 642.5 1068.8 642.5 966 745.3 966 642.5"/>
        </g>
      </g>
      <g>
        <g>
          <line class="cls-3" x1="1209" y1="577.1" x2="1171.7" y2="642.5"/>
          <polyline class="cls-3" points="1171.7 539.6 1238.9 503.8 1274.5 436.8"/>
          <polyline class="cls-3" points="1171.7 436.8 1110.5 479.6 1068.8 539.6"/>
          <line class="cls-3" x1="1131.7" y1="395.7" x2="1171.7" y2="334"/>
          <polygon class="cls-3" points="1068.8 436.8 1131.7 395.7 1274.5 539.6 1209 577.1 1068.8 436.8"/>
        </g>
        <g>
          <rect class="cls-3" x="1068.8" y="436.8" width="102.8" height="102.8"/>
          <polygon class="cls-3" points="1171.7 436.8 1068.8 436.8 1171.7 334 1171.7 436.8"/>
          <rect class="cls-3" x="1171.7" y="436.8" width="102.8" height="102.8"/>
          <polygon class="cls-3" points="1171.7 539.6 1274.5 539.6 1171.7 642.5 1171.7 539.6"/>
        </g>
      </g>
      <g>
        <g>
          <line class="cls-3" x1="1414.6" y1="474.3" x2="1377.3" y2="539.6"/>
          <polyline class="cls-3" points="1377.3 436.8 1444.6 400.9 1480.2 334"/>
          <polyline class="cls-3" points="1377.3 334 1316.2 376.8 1274.5 436.8"/>
          <line class="cls-3" x1="1337.4" y1="292.9" x2="1377.3" y2="231.1"/>
          <polygon class="cls-3" points="1274.5 334 1337.4 292.9 1480.2 436.8 1414.6 474.3 1274.5 334"/>
        </g>
        <g>
          <rect class="cls-3" x="1274.5" y="334" width="102.8" height="102.8"/>
          <polygon class="cls-3" points="1377.3 334 1274.5 334 1377.3 231.1 1377.3 334"/>
          <rect class="cls-3" x="1377.3" y="334" width="102.8" height="102.8"/>
          <polygon class="cls-3" points="1377.3 436.8 1480.2 436.8 1377.3 539.6 1377.3 436.8"/>
        </g>
      </g>
      <g>
        <g>
          <line class="cls-3" x1="1620.3" y1="371.5" x2="1583" y2="436.8"/>
          <polyline class="cls-3" points="1583 334 1650.2 298.1 1685.8 231.1"/>
          <polyline class="cls-3" points="1583 231.1 1521.8 273.9 1480.2 334"/>
          <line class="cls-3" x1="1543.1" y1="190" x2="1583" y2="128.3"/>
          <polygon class="cls-3" points="1480.2 231.1 1543.1 190 1685.8 334 1620.3 371.5 1480.2 231.1"/>
        </g>
        <g>
          <rect class="cls-3" x="1480.2" y="231.1" width="102.8" height="102.8"/>
          <polygon class="cls-3" points="1583 231.1 1480.2 231.1 1583 128.3 1583 231.1"/>
          <rect class="cls-3" x="1583" y="231.1" width="102.8" height="102.8"/>
          <polygon class="cls-3" points="1583 334 1685.8 334 1583 436.8 1583 334"/>
        </g>
      </g>
      <g>
        <line class="cls-3" x1="103.4" y1="1216.8" x2="143.4" y2="1155.1"/>
        <polygon class="cls-3" points="143.4 1258 40.5 1258 143.4 1155.1 143.4 1258"/>
      </g>
      <g>
        <g>
          <polyline class="cls-3" points="349 1258 416.3 1222.1 451.9 1155.1"/>
          <polyline class="cls-3" points="349 1155.1 287.8 1197.9 246.2 1258"/>
          <line class="cls-3" x1="309.1" y1="1114" x2="349" y2="1052.3"/>
          <polygon class="cls-3" points="246.2 1155.1 309.1 1114 451.9 1258 386.3 1295.5 246.2 1155.1"/>
        </g>
        <g>
          <rect class="cls-3" x="246.2" y="1155.1" width="102.8" height="102.8"/>
          <polygon class="cls-3" points="349 1155.1 246.2 1155.1 349 1052.3 349 1155.1"/>
          <rect class="cls-3" x="349" y="1155.1" width="102.8" height="102.8"/>
        </g>
      </g>
      <g>
        <g>
          <line class="cls-3" x1="592" y1="1192.6" x2="554.7" y2="1258"/>
          <polyline class="cls-3" points="554.7 1155.1 621.9 1119.2 657.5 1052.3"/>
          <polyline class="cls-3" points="554.7 1052.3 493.5 1095.1 451.9 1155.1"/>
          <line class="cls-3" x1="514.7" y1="1011.2" x2="554.7" y2="949.5"/>
          <polygon class="cls-3" points="451.9 1052.3 514.7 1011.2 657.5 1155.1 592 1192.6 451.9 1052.3"/>
        </g>
        <g>
          <rect class="cls-3" x="451.9" y="1052.3" width="102.8" height="102.8"/>
          <polygon class="cls-3" points="554.7 1052.3 451.9 1052.3 554.7 949.5 554.7 1052.3"/>
          <rect class="cls-3" x="554.7" y="1052.3" width="102.8" height="102.8"/>
          <polygon class="cls-3" points="554.7 1155.1 657.5 1155.1 554.7 1258 554.7 1155.1"/>
        </g>
      </g>
      <g>
        <g>
          <line class="cls-3" x1="797.7" y1="1089.8" x2="760.4" y2="1155.1"/>
          <polyline class="cls-3" points="760.4 1052.3 827.6 1016.4 863.2 949.5"/>
          <polyline class="cls-3" points="760.4 949.5 699.2 992.3 657.5 1052.3"/>
          <line class="cls-3" x1="720.4" y1="908.3" x2="760.4" y2="846.6"/>
          <polygon class="cls-3" points="657.5 949.5 720.4 908.3 863.2 1052.3 797.7 1089.8 657.5 949.5"/>
        </g>
        <g>
          <rect class="cls-3" x="657.5" y="949.5" width="102.8" height="102.8"/>
          <polygon class="cls-3" points="760.4 949.5 657.5 949.5 760.4 846.6 760.4 949.5"/>
          <rect class="cls-3" x="760.4" y="949.5" width="102.8" height="102.8"/>
          <polygon class="cls-3" points="760.4 1052.3 863.2 1052.3 760.4 1155.1 760.4 1052.3"/>
        </g>
      </g>
      <g>
        <g>
          <line class="cls-3" x1="1003.3" y1="987" x2="966" y2="1052.3"/>
          <polyline class="cls-3" points="966 949.5 1033.3 913.6 1068.8 846.6"/>
          <polyline class="cls-3" points="966 846.6 904.8 889.4 863.2 949.5"/>
          <line class="cls-3" x1="926.1" y1="805.5" x2="966" y2="743.8"/>
          <polygon class="cls-3" points="863.2 846.6 926.1 805.5 1068.8 949.5 1003.3 987 863.2 846.6"/>
        </g>
        <g>
          <rect class="cls-3" x="863.2" y="846.6" width="102.8" height="102.8"/>
          <polygon class="cls-3" points="966 846.6 863.2 846.6 966 743.8 966 846.6"/>
          <rect class="cls-3" x="966" y="846.6" width="102.8" height="102.8"/>
          <polygon class="cls-3" points="966 949.5 1068.8 949.5 966 1052.3 966 949.5"/>
        </g>
      </g>
      <g>
        <g>
          <line class="cls-3" x1="1620.3" y1="678.5" x2="1583" y2="743.8"/>
          <polyline class="cls-3" points="1583 641 1650.2 605.1 1685.8 538.1"/>
          <polyline class="cls-3" points="1583 538.1 1521.8 580.9 1480.2 641"/>
          <line class="cls-3" x1="1543.1" y1="497" x2="1583" y2="435.3"/>
          <polygon class="cls-3" points="1480.2 538.1 1543.1 497 1685.8 641 1620.3 678.5 1480.2 538.1"/>
        </g>
        <g>
          <rect class="cls-3" x="1480.2" y="538.1" width="102.8" height="102.8"/>
          <polygon class="cls-3" points="1583 538.1 1480.2 538.1 1583 435.3 1583 538.1"/>
          <rect class="cls-3" x="1583" y="538.1" width="102.8" height="102.8"/>
          <polygon class="cls-3" points="1583 641 1685.8 641 1583 743.8 1583 641"/>
        </g>
      </g>
      <g>
        <g>
          <line class="cls-3" x1="1820.4" y1="592.4" x2="1783.1" y2="657.8"/>
          <polyline class="cls-3" points="1783.1 554.9 1850.3 519 1885.9 452.1"/>
          <polyline class="cls-3" points="1783.1 452.1 1721.9 494.9 1680.2 554.9"/>
          <line class="cls-3" x1="1743.1" y1="411" x2="1783.1" y2="349.3"/>
          <polygon class="cls-3" points="1680.2 452.1 1743.1 411 1885.9 554.9 1820.4 592.4 1680.2 452.1"/>
        </g>
        <g>
          <rect class="cls-3" x="1680.2" y="452.1" width="102.8" height="102.8"/>
          <polygon class="cls-3" points="1783.1 452.1 1680.2 452.1 1783.1 349.3 1783.1 452.1"/>
          <rect class="cls-3" x="1783.1" y="452.1" width="102.8" height="102.8"/>
          <polygon class="cls-3" points="1783.1 554.9 1885.9 554.9 1783.1 657.8 1783.1 554.9"/>
        </g>
      </g>
      <g>
        <line class="cls-3" x1="720.4" y1="1215.3" x2="760.4" y2="1153.6"/>
        <polygon class="cls-3" points="760.4 1256.5 657.5 1256.5 760.4 1153.6 760.4 1256.5"/>
      </g>
      <g>
        <g>
          <polyline class="cls-3" points="966 1256.5 1033.3 1220.6 1068.8 1153.6"/>
          <polyline class="cls-3" points="966 1153.6 904.8 1196.4 863.2 1256.5"/>
          <line class="cls-3" x1="926.1" y1="1112.5" x2="966" y2="1050.8"/>
          <polygon class="cls-3" points="863.2 1153.6 926.1 1112.5 1068.8 1256.5 1003.3 1294 863.2 1153.6"/>
        </g>
        <g>
          <rect class="cls-3" x="863.2" y="1153.6" width="102.8" height="102.8"/>
          <polygon class="cls-3" points="966 1153.6 863.2 1153.6 966 1050.8 966 1153.6"/>
          <rect class="cls-3" x="966" y="1153.6" width="102.8" height="102.8"/>
        </g>
      </g>
      <g>
        <g>
          <line class="cls-3" x1="1209" y1="1191.1" x2="1171.7" y2="1256.5"/>
          <polyline class="cls-3" points="1171.7 1153.6 1238.9 1117.7 1274.5 1050.8"/>
          <polyline class="cls-3" points="1171.7 1050.8 1110.5 1093.6 1068.8 1153.6"/>
          <line class="cls-3" x1="1131.7" y1="1009.7" x2="1171.7" y2="948"/>
          <polygon class="cls-3" points="1068.8 1050.8 1131.7 1009.7 1274.5 1153.6 1209 1191.1 1068.8 1050.8"/>
        </g>
        <g>
          <rect class="cls-3" x="1068.8" y="1050.8" width="102.8" height="102.8"/>
          <polygon class="cls-3" points="1171.7 1050.8 1068.8 1050.8 1171.7 948 1171.7 1050.8"/>
          <rect class="cls-3" x="1171.7" y="1050.8" width="102.8" height="102.8"/>
          <polygon class="cls-3" points="1171.7 1153.6 1274.5 1153.6 1171.7 1256.5 1171.7 1153.6"/>
        </g>
      </g>
      <g>
        <g>
          <line class="cls-3" x1="1414.6" y1="1088.3" x2="1377.3" y2="1153.6"/>
          <polyline class="cls-3" points="1377.3 1050.8 1444.6 1014.9 1480.2 948"/>
          <polyline class="cls-3" points="1377.3 948 1316.2 990.8 1274.5 1050.8"/>
          <line class="cls-3" x1="1337.4" y1="906.8" x2="1377.3" y2="845.1"/>
          <polygon class="cls-3" points="1274.5 948 1337.4 906.8 1480.2 1050.8 1414.6 1088.3 1274.5 948"/>
        </g>
        <g>
          <rect class="cls-3" x="1274.5" y="948" width="102.8" height="102.8"/>
          <polygon class="cls-3" points="1377.3 948 1274.5 948 1377.3 845.1 1377.3 948"/>
          <rect class="cls-3" x="1377.3" y="948" width="102.8" height="102.8"/>
          <polygon class="cls-3" points="1377.3 1050.8 1480.2 1050.8 1377.3 1153.6 1377.3 1050.8"/>
        </g>
      </g>
      <g>
        <g>
          <line class="cls-3" x1="1620.3" y1="985.5" x2="1583" y2="1050.8"/>
          <polyline class="cls-3" points="1583 948 1650.2 912.1 1685.8 845.1"/>
          <polyline class="cls-3" points="1583 845.1 1521.8 887.9 1480.2 948"/>
          <line class="cls-3" x1="1543.1" y1="804" x2="1583" y2="742.3"/>
          <polygon class="cls-3" points="1480.2 845.1 1543.1 804 1685.8 948 1620.3 985.5 1480.2 845.1"/>
        </g>
        <g>
          <rect class="cls-3" x="1480.2" y="845.1" width="102.8" height="102.8"/>
          <polygon class="cls-3" points="1583 845.1 1480.2 845.1 1583 742.3 1583 845.1"/>
          <rect class="cls-3" x="1583" y="845.1" width="102.8" height="102.8"/>
          <polygon class="cls-3" points="1583 948 1685.8 948 1583 1050.8 1583 948"/>
        </g>
      </g>
      <g>
        <g>
          <line class="cls-3" x1="1826" y1="882.6" x2="1788.7" y2="948"/>
          <polyline class="cls-3" points="1788.7 845.1 1855.9 809.3 1891.5 742.3"/>
          <polyline class="cls-3" points="1788.7 742.3 1727.5 785.1 1685.8 845.1"/>
          <line class="cls-3" x1="1748.7" y1="701.2" x2="1788.7" y2="639.5"/>
          <polygon class="cls-3" points="1685.8 742.3 1748.7 701.2 1891.5 845.1 1826 882.6 1685.8 742.3"/>
        </g>
        <g>
          <rect class="cls-3" x="1685.8" y="742.3" width="102.8" height="102.8"/>
          <polygon class="cls-3" points="1788.7 742.3 1685.8 742.3 1788.7 639.5 1788.7 742.3"/>
          <rect class="cls-3" x="1788.7" y="742.3" width="102.8" height="102.8"/>
          <polygon class="cls-3" points="1788.7 845.1 1891.5 845.1 1788.7 948 1788.7 845.1"/>
        </g>
      </g>
      <g>
        <line class="cls-3" x1="1337.4" y1="1213.8" x2="1377.3" y2="1152.1"/>
        <polygon class="cls-3" points="1377.3 1255 1274.5 1255 1377.3 1152.1 1377.3 1255"/>
      </g>
      <g>
        <g>
          <polyline class="cls-3" points="1583 1255 1650.2 1219.1 1685.8 1152.1"/>
          <polyline class="cls-3" points="1583 1152.1 1521.8 1194.9 1480.2 1255"/>
          <line class="cls-3" x1="1543.1" y1="1111" x2="1583" y2="1049.3"/>
          <polygon class="cls-3" points="1480.2 1152.1 1543.1 1111 1685.8 1255 1620.3 1292.5 1480.2 1152.1"/>
        </g>
        <g>
          <rect class="cls-3" x="1480.2" y="1152.1" width="102.8" height="102.8"/>
          <polygon class="cls-3" points="1583 1152.1 1480.2 1152.1 1583 1049.3 1583 1152.1"/>
          <rect class="cls-3" x="1583" y="1152.1" width="102.8" height="102.8"/>
        </g>
      </g>
    </g>
  </g>
</svg>